<svg xmlns="http://www.w3.org/2000/svg" xmlns:xlink="http://www.w3.org/1999/xlink" zoomAndPan="magnify" preserveAspectRatio="xMidYMid meet" version="1.0" viewBox="61.61 111.13 237.09 138.04"><defs><g></g><clipPath id="0d9a370b2f"><path d="M 61.605469 158.863281 L 156 158.863281 L 156 181.363281 L 61.605469 181.363281 Z M 61.605469 158.863281 " clip-rule="nonzero"></path></clipPath><clipPath id="80b8093a9e"><path d="M 219 113 L 293 113 L 293 163 L 219 163 Z M 219 113 " clip-rule="nonzero"></path></clipPath><clipPath id="419c4f4aed"><path d="M 212.453125 143.972656 L 291.234375 112.730469 L 298.699219 131.554688 L 219.917969 162.796875 Z M 212.453125 143.972656 " clip-rule="nonzero"></path></clipPath><clipPath id="008534adf0"><path d="M 298.535156 131.457031 L 219.753906 162.699219 L 212.289062 143.875 L 291.070312 112.632812 Z M 298.535156 131.457031 " clip-rule="nonzero"></path></clipPath></defs><g clip-path="url(#0d9a370b2f)"><path fill="#444440" d="M 64.820312 180.542969 C 65.054688 180 64.964844 179.339844 64.582031 178.941406 C 64.542969 178.902344 64.507812 178.851562 64.460938 178.820312 C 64.386719 178.773438 64.3125 178.707031 64.226562 178.640625 C 64.226562 178.640625 64.222656 178.632812 64.222656 178.625 C 64.214844 178.625 64.214844 178.625 64.214844 178.625 C 63.875 178.300781 63.554688 177.789062 63.351562 177.40625 C 63.34375 177.179688 63.359375 176.925781 63.394531 176.632812 C 63.554688 175.132812 64.769531 173.578125 67.042969 171.9375 C 68.324219 170.984375 69.9375 170.074219 71.890625 169.207031 C 73.914062 168.335938 76.363281 167.574219 79.226562 166.941406 C 85.441406 165.621094 91.4375 165.296875 97.222656 165.972656 C 102.925781 166.65625 108.777344 167.289062 114.796875 167.859375 C 118.089844 168.238281 121.421875 168.449219 124.769531 168.492188 C 128.117188 168.539062 131.644531 168.320312 135.335938 167.839844 C 143.371094 166.800781 149.328125 164.925781 153.195312 162.21875 C 154.074219 161.585938 154.871094 161.03125 155.609375 160.535156 C 155.679688 160.261719 155.761719 159.984375 155.839844 159.710938 C 155.804688 159.429688 155.765625 159.144531 155.722656 158.863281 C 154.8125 159.496094 153.777344 160.210938 152.570312 161.039062 C 148.609375 163.671875 142.859375 165.484375 135.296875 166.46875 C 128.875 167.335938 122.75 167.34375 116.957031 166.5 C 111.082031 165.664062 105.183594 165.039062 99.269531 164.617188 C 96.066406 164.402344 92.796875 164.339844 89.464844 164.460938 C 86.140625 164.574219 82.726562 165.03125 79.222656 165.816406 C 75.800781 166.597656 72.957031 167.484375 70.695312 168.460938 C 68.527344 169.515625 66.808594 170.5625 65.535156 171.597656 C 63.074219 173.667969 61.886719 175.59375 62 177.382812 L 62.066406 177.992188 C 62.082031 178.160156 62.105469 178.308594 62.136719 178.453125 C 62.15625 178.804688 62.15625 179.167969 62.121094 179.480469 C 62.097656 179.707031 62.113281 179.941406 62.136719 180.167969 C 62.195312 180.730469 62.789062 181.273438 63.433594 181.355469 " fill-opacity="1" fill-rule="nonzero"></path></g><g fill="#444440" fill-opacity="1"><g transform="translate(154.777538, 178.251867)"><g><path d="M 35.679688 -18.71875 C 36.078125 -19.277344 35.117188 -19.597656 34.15625 -18.796875 C 22.238281 -1.359375 12.480469 10.238281 7.359375 8.71875 C 1.121094 6.878906 12.160156 -11.277344 9.199219 -13.4375 C 9.039062 -13.597656 7.839844 -14.320312 1.679688 -19.039062 C 8.320312 -28.636719 10.800781 -34.316406 6.320312 -36.316406 C -1.917969 -39.515625 -8.238281 -26.957031 -2.238281 -20.480469 C -1.28125 -19.519531 4.160156 -15.679688 5.839844 -14.398438 C 2.480469 -8.640625 -1.199219 1.039062 2.640625 7.359375 C 3.917969 9.4375 6.398438 10.398438 7.597656 10.320312 C 14.71875 9.839844 24.71875 -2.878906 35.679688 -18.71875 Z M 0.640625 -19.839844 C -3.359375 -22.878906 2.238281 -36.636719 5.917969 -35.039062 C 9.679688 -33.4375 5.039062 -26.316406 0.640625 -19.839844 Z M 0.640625 -19.839844 "></path></g></g></g><g fill="#444440" fill-opacity="1"><g transform="translate(188.934224, 178.251867)"><g><path d="M 11.039062 10.238281 C 18.238281 4.878906 28.398438 -13.039062 32.796875 -18.796875 C 32.796875 -19.199219 31.757812 -19.199219 31.4375 -18.878906 C 28 -14.480469 16.480469 5.28125 9.597656 9.839844 C 0.960938 15.359375 2.878906 -1.039062 3.359375 -5.519531 C 4 -12.078125 5.28125 -18.957031 6.078125 -22.238281 C 32.238281 -51.597656 29.117188 -67.117188 21.039062 -67.117188 C 11.199219 -67.117188 3.917969 -47.515625 0.71875 -27.4375 C -0.558594 -19.359375 -1.121094 -11.121094 -0.960938 -4.160156 C -0.878906 -0.238281 -0.878906 12.558594 5.519531 12.558594 C 7.039062 12.558594 8.878906 11.839844 11.039062 10.238281 Z M 6.320312 -24.320312 C 8.320312 -42.558594 14.878906 -65.035156 20.640625 -65.914062 C 27.4375 -66.476562 30.316406 -52.957031 6.320312 -24.320312 Z M 6.320312 -24.320312 "></path></g></g></g><g clip-path="url(#80b8093a9e)"><g clip-path="url(#419c4f4aed)"><g clip-path="url(#008534adf0)"><path fill="#444440" d="M 288.652344 114.382812 C 288.636719 114.914062 288.933594 115.4375 289.382812 115.644531 C 289.425781 115.664062 289.476562 115.695312 289.523438 115.707031 C 289.601562 115.71875 289.6875 115.75 289.777344 115.78125 C 289.777344 115.78125 289.785156 115.785156 289.789062 115.789062 C 289.796875 115.789062 289.796875 115.789062 289.796875 115.789062 C 290.183594 115.945312 290.621094 116.269531 290.917969 116.523438 C 291 116.707031 291.070312 116.925781 291.136719 117.183594 C 291.503906 118.488281 291.007812 120.195312 289.65625 122.316406 C 288.902344 123.539062 287.859375 124.835938 286.523438 126.203125 C 285.121094 127.605469 283.335938 129.046875 281.15625 130.523438 C 276.417969 133.683594 271.527344 135.9375 266.480469 137.285156 C 261.5 138.597656 256.414062 140 251.207031 141.511719 C 248.335938 142.289062 245.488281 143.210938 242.683594 144.28125 C 239.878906 145.347656 237.011719 146.699219 234.097656 148.320312 C 227.742188 151.84375 223.398438 155.382812 221.074219 158.925781 C 220.550781 159.746094 220.070312 160.472656 219.621094 161.128906 C 219.652344 161.386719 219.675781 161.640625 219.703125 161.898438 C 219.828125 162.121094 219.953125 162.347656 220.082031 162.570312 C 220.628906 161.738281 221.253906 160.796875 221.984375 159.707031 C 224.414062 156.195312 228.605469 152.777344 234.582031 149.453125 C 239.648438 146.605469 244.75 144.578125 249.855469 143.367188 C 255.03125 142.121094 260.152344 140.695312 265.222656 139.09375 C 267.964844 138.21875 270.710938 137.1875 273.449219 135.984375 C 276.183594 134.789062 278.875 133.277344 281.535156 131.464844 C 284.128906 129.679688 286.203125 127.996094 287.761719 126.433594 C 289.222656 124.835938 290.304688 123.390625 291.023438 122.101562 C 292.390625 119.558594 292.738281 117.554688 292.050781 116.09375 L 291.792969 115.609375 C 291.726562 115.472656 291.65625 115.355469 291.585938 115.246094 C 291.449219 114.957031 291.328125 114.65625 291.253906 114.378906 C 291.199219 114.183594 291.109375 113.992188 291.015625 113.8125 C 290.777344 113.359375 290.105469 113.101562 289.539062 113.246094 " fill-opacity="1" fill-rule="nonzero"></path></g></g></g><g fill="#444440" fill-opacity="1"><g transform="translate(93.932415, 225.559804)"><g><path d="M 9.90625 0 L 6.203125 -6.359375 L 3.75 -6.359375 L 3.75 0 L 1.71875 0 L 1.71875 -15.546875 L 6.734375 -15.546875 C 7.910156 -15.546875 8.898438 -15.34375 9.703125 -14.9375 C 10.515625 -14.539062 11.117188 -14 11.515625 -13.3125 C 11.921875 -12.625 12.125 -11.84375 12.125 -10.96875 C 12.125 -9.894531 11.816406 -8.945312 11.203125 -8.125 C 10.585938 -7.3125 9.660156 -6.773438 8.421875 -6.515625 L 12.328125 0 Z M 3.75 -7.984375 L 6.734375 -7.984375 C 7.835938 -7.984375 8.660156 -8.253906 9.203125 -8.796875 C 9.753906 -9.335938 10.03125 -10.0625 10.03125 -10.96875 C 10.03125 -11.894531 9.757812 -12.609375 9.21875 -13.109375 C 8.675781 -13.617188 7.847656 -13.875 6.734375 -13.875 L 3.75 -13.875 Z M 3.75 -7.984375 "></path></g></g></g><g fill="#444440" fill-opacity="1"><g transform="translate(110.427081, 225.559804)"><g><path d="M 10.90625 -3.453125 L 4.125 -3.453125 L 2.875 0 L 0.734375 0 L 6.359375 -15.453125 L 8.703125 -15.453125 L 14.296875 0 L 12.15625 0 Z M 10.328125 -5.109375 L 7.515625 -12.953125 L 4.703125 -5.109375 Z M 10.328125 -5.109375 "></path></g></g></g><g fill="#444440" fill-opacity="1"><g transform="translate(128.392816, 225.559804)"><g><path d="M 0.953125 -7.78125 C 0.953125 -9.300781 1.296875 -10.664062 1.984375 -11.875 C 2.671875 -13.082031 3.601562 -14.023438 4.78125 -14.703125 C 5.96875 -15.390625 7.28125 -15.734375 8.71875 -15.734375 C 10.414062 -15.734375 11.894531 -15.320312 13.15625 -14.5 C 14.414062 -13.6875 15.335938 -12.53125 15.921875 -11.03125 L 13.484375 -11.03125 C 13.054688 -11.96875 12.4375 -12.6875 11.625 -13.1875 C 10.8125 -13.695312 9.84375 -13.953125 8.71875 -13.953125 C 7.632812 -13.953125 6.660156 -13.695312 5.796875 -13.1875 C 4.929688 -12.6875 4.253906 -11.972656 3.765625 -11.046875 C 3.273438 -10.117188 3.03125 -9.03125 3.03125 -7.78125 C 3.03125 -6.550781 3.273438 -5.46875 3.765625 -4.53125 C 4.253906 -3.601562 4.929688 -2.882812 5.796875 -2.375 C 6.660156 -1.875 7.632812 -1.625 8.71875 -1.625 C 9.84375 -1.625 10.8125 -1.875 11.625 -2.375 C 12.4375 -2.875 13.054688 -3.59375 13.484375 -4.53125 L 15.921875 -4.53125 C 15.335938 -3.039062 14.414062 -1.890625 13.15625 -1.078125 C 11.894531 -0.265625 10.414062 0.140625 8.71875 0.140625 C 7.28125 0.140625 5.96875 -0.195312 4.78125 -0.875 C 3.601562 -1.550781 2.671875 -2.488281 1.984375 -3.6875 C 1.296875 -4.894531 0.953125 -6.257812 0.953125 -7.78125 Z M 0.953125 -7.78125 "></path></g></g></g><g fill="#444440" fill-opacity="1"><g transform="translate(148.542874, 225.559804)"><g><path d="M 13.6875 -15.546875 L 13.6875 0 L 11.65625 0 L 11.65625 -7.046875 L 3.75 -7.046875 L 3.75 0 L 1.71875 0 L 1.71875 -15.546875 L 3.75 -15.546875 L 3.75 -8.71875 L 11.65625 -8.71875 L 11.65625 -15.546875 Z M 13.6875 -15.546875 "></path></g></g></g><g fill="#444440" fill-opacity="1"><g transform="translate(166.909805, 225.559804)"><g><path d="M 10.90625 -3.453125 L 4.125 -3.453125 L 2.875 0 L 0.734375 0 L 6.359375 -15.453125 L 8.703125 -15.453125 L 14.296875 0 L 12.15625 0 Z M 10.328125 -5.109375 L 7.515625 -12.953125 L 4.703125 -5.109375 Z M 10.328125 -5.109375 "></path></g></g></g><g fill="#444440" fill-opacity="1"><g transform="translate(184.87554, 225.559804)"><g><path d="M 3.75 -13.890625 L 3.75 -8.703125 L 9.40625 -8.703125 L 9.40625 -7.03125 L 3.75 -7.03125 L 3.75 -1.671875 L 10.078125 -1.671875 L 10.078125 0 L 1.71875 0 L 1.71875 -15.5625 L 10.078125 -15.5625 L 10.078125 -13.890625 Z M 3.75 -13.890625 "></path></g></g></g><g fill="#444440" fill-opacity="1"><g transform="translate(199.252752, 225.559804)"><g><path d="M 3.75 -1.65625 L 9.1875 -1.65625 L 9.1875 0 L 1.71875 0 L 1.71875 -15.546875 L 3.75 -15.546875 Z M 3.75 -1.65625 "></path></g></g></g><g fill="#444440" fill-opacity="1"><g transform="translate(211.824555, 225.559804)"><g></g></g></g><g fill="#444440" fill-opacity="1"><g transform="translate(220.718673, 225.559804)"><g><path d="M 3.75 -1.65625 L 9.1875 -1.65625 L 9.1875 0 L 1.71875 0 L 1.71875 -15.546875 L 3.75 -15.546875 Z M 3.75 -1.65625 "></path></g></g></g><g fill="#444440" fill-opacity="1"><g transform="translate(233.290477, 225.559804)"><g><path d="M 3.75 -13.890625 L 3.75 -8.703125 L 9.40625 -8.703125 L 9.40625 -7.03125 L 3.75 -7.03125 L 3.75 -1.671875 L 10.078125 -1.671875 L 10.078125 0 L 1.71875 0 L 1.71875 -15.5625 L 10.078125 -15.5625 L 10.078125 -13.890625 Z M 3.75 -13.890625 "></path></g></g></g><g fill="#444440" fill-opacity="1"><g transform="translate(247.667688, 225.559804)"><g><path d="M 10.90625 -3.453125 L 4.125 -3.453125 L 2.875 0 L 0.734375 0 L 6.359375 -15.453125 L 8.703125 -15.453125 L 14.296875 0 L 12.15625 0 Z M 10.328125 -5.109375 L 7.515625 -12.953125 L 4.703125 -5.109375 Z M 10.328125 -5.109375 "></path></g></g></g><g fill="#444440" fill-opacity="1"><g transform="translate(265.633424, 225.559804)"><g><path d="M 13.6875 -15.546875 L 13.6875 0 L 11.65625 0 L 11.65625 -7.046875 L 3.75 -7.046875 L 3.75 0 L 1.71875 0 L 1.71875 -15.546875 L 3.75 -15.546875 L 3.75 -8.71875 L 11.65625 -8.71875 L 11.65625 -15.546875 Z M 13.6875 -15.546875 "></path></g></g></g><g fill="#444440" fill-opacity="1"><g transform="translate(159.598709, 249.095038)"><g><path d="M 3.28125 -8.234375 C 4.664062 -8.234375 5.734375 -7.867188 6.484375 -7.140625 C 7.242188 -6.421875 7.625 -5.410156 7.625 -4.109375 C 7.625 -2.804688 7.242188 -1.796875 6.484375 -1.078125 C 5.734375 -0.359375 4.664062 0 3.28125 0 L 0.96875 0 L 0.96875 -8.234375 Z M 3.28125 -0.453125 C 4.519531 -0.453125 5.460938 -0.769531 6.109375 -1.40625 C 6.765625 -2.050781 7.09375 -2.953125 7.09375 -4.109375 C 7.09375 -5.265625 6.765625 -6.164062 6.109375 -6.8125 C 5.460938 -7.46875 4.519531 -7.796875 3.28125 -7.796875 L 1.484375 -7.796875 L 1.484375 -0.453125 Z M 3.28125 -0.453125 "></path></g></g></g><g fill="#444440" fill-opacity="1"><g transform="translate(169.397702, 249.095038)"><g><path d="M 1.484375 -7.796875 L 1.484375 -4.359375 L 4.78125 -4.359375 L 4.78125 -3.90625 L 1.484375 -3.90625 L 1.484375 -0.453125 L 5.125 -0.453125 L 5.125 0 L 0.96875 0 L 0.96875 -8.234375 L 5.125 -8.234375 L 5.125 -7.796875 Z M 1.484375 -7.796875 "></path></g></g></g><g fill="#444440" fill-opacity="1"><g transform="translate(176.700601, 249.095038)"><g><path d="M 3.34375 0.078125 C 2.8125 0.078125 2.34375 -0.015625 1.9375 -0.203125 C 1.539062 -0.390625 1.234375 -0.640625 1.015625 -0.953125 C 0.796875 -1.273438 0.671875 -1.632812 0.640625 -2.03125 L 1.1875 -2.03125 C 1.25 -1.601562 1.445312 -1.21875 1.78125 -0.875 C 2.125 -0.539062 2.644531 -0.375 3.34375 -0.375 C 3.75 -0.375 4.101562 -0.445312 4.40625 -0.59375 C 4.707031 -0.75 4.9375 -0.953125 5.09375 -1.203125 C 5.257812 -1.460938 5.34375 -1.75 5.34375 -2.0625 C 5.34375 -2.457031 5.25 -2.773438 5.0625 -3.015625 C 4.875 -3.253906 4.632812 -3.429688 4.34375 -3.546875 C 4.0625 -3.660156 3.675781 -3.785156 3.1875 -3.921875 C 2.65625 -4.054688 2.226562 -4.191406 1.90625 -4.328125 C 1.582031 -4.472656 1.304688 -4.691406 1.078125 -4.984375 C 0.859375 -5.285156 0.75 -5.691406 0.75 -6.203125 C 0.75 -6.585938 0.851562 -6.941406 1.0625 -7.265625 C 1.269531 -7.585938 1.5625 -7.84375 1.9375 -8.03125 C 2.320312 -8.21875 2.769531 -8.3125 3.28125 -8.3125 C 4 -8.3125 4.582031 -8.128906 5.03125 -7.765625 C 5.476562 -7.410156 5.742188 -6.972656 5.828125 -6.453125 L 5.265625 -6.453125 C 5.222656 -6.660156 5.117188 -6.875 4.953125 -7.09375 C 4.796875 -7.3125 4.570312 -7.492188 4.28125 -7.640625 C 3.988281 -7.785156 3.640625 -7.859375 3.234375 -7.859375 C 2.679688 -7.859375 2.21875 -7.707031 1.84375 -7.40625 C 1.46875 -7.101562 1.28125 -6.703125 1.28125 -6.203125 C 1.28125 -5.804688 1.375 -5.488281 1.5625 -5.25 C 1.757812 -5.007812 2 -4.828125 2.28125 -4.703125 C 2.570312 -4.585938 2.960938 -4.46875 3.453125 -4.34375 C 3.992188 -4.195312 4.421875 -4.050781 4.734375 -3.90625 C 5.046875 -3.769531 5.3125 -3.554688 5.53125 -3.265625 C 5.757812 -2.972656 5.875 -2.578125 5.875 -2.078125 C 5.875 -1.710938 5.773438 -1.363281 5.578125 -1.03125 C 5.390625 -0.707031 5.101562 -0.441406 4.71875 -0.234375 C 4.34375 -0.0234375 3.882812 0.078125 3.34375 0.078125 Z M 3.34375 0.078125 "></path></g></g></g><g fill="#444440" fill-opacity="1"><g transform="translate(184.741783, 249.095038)"><g><path d="M 1.484375 -8.234375 L 1.484375 0 L 0.96875 0 L 0.96875 -8.234375 Z M 1.484375 -8.234375 "></path></g></g></g><g fill="#444440" fill-opacity="1"><g transform="translate(188.751712, 249.095038)"><g><path d="M 7.734375 -5.8125 C 7.492188 -6.425781 7.101562 -6.914062 6.5625 -7.28125 C 6.019531 -7.65625 5.378906 -7.84375 4.640625 -7.84375 C 3.984375 -7.84375 3.394531 -7.6875 2.875 -7.375 C 2.351562 -7.070312 1.9375 -6.640625 1.625 -6.078125 C 1.320312 -5.515625 1.171875 -4.859375 1.171875 -4.109375 C 1.171875 -3.359375 1.320312 -2.703125 1.625 -2.140625 C 1.9375 -1.578125 2.351562 -1.144531 2.875 -0.84375 C 3.394531 -0.539062 3.984375 -0.390625 4.640625 -0.390625 C 5.265625 -0.390625 5.828125 -0.53125 6.328125 -0.8125 C 6.835938 -1.09375 7.242188 -1.492188 7.546875 -2.015625 C 7.859375 -2.535156 8.03125 -3.144531 8.0625 -3.84375 L 4.390625 -3.84375 L 4.390625 -4.28125 L 8.59375 -4.28125 L 8.59375 -3.9375 C 8.570312 -3.164062 8.390625 -2.472656 8.046875 -1.859375 C 7.703125 -1.253906 7.234375 -0.78125 6.640625 -0.4375 C 6.046875 -0.09375 5.378906 0.078125 4.640625 0.078125 C 3.878906 0.078125 3.191406 -0.0976562 2.578125 -0.453125 C 1.972656 -0.804688 1.5 -1.300781 1.15625 -1.9375 C 0.8125 -2.570312 0.640625 -3.296875 0.640625 -4.109375 C 0.640625 -4.921875 0.8125 -5.644531 1.15625 -6.28125 C 1.5 -6.914062 1.972656 -7.410156 2.578125 -7.765625 C 3.191406 -8.128906 3.878906 -8.3125 4.640625 -8.3125 C 5.523438 -8.3125 6.285156 -8.085938 6.921875 -7.640625 C 7.566406 -7.203125 8.039062 -6.59375 8.34375 -5.8125 Z M 7.734375 -5.8125 "></path></g></g></g><g fill="#444440" fill-opacity="1"><g transform="translate(199.52336, 249.095038)"><g><path d="M 6.859375 0 L 6.328125 0 L 1.484375 -7.375 L 1.484375 0 L 0.96875 0 L 0.96875 -8.21875 L 1.484375 -8.21875 L 6.328125 -0.875 L 6.328125 -8.21875 L 6.859375 -8.21875 Z M 6.859375 0 "></path></g></g></g><g fill="#444440" fill-opacity="1"><g transform="translate(208.888758, 249.095038)"><g><path d="M 3.34375 0.078125 C 2.8125 0.078125 2.34375 -0.015625 1.9375 -0.203125 C 1.539062 -0.390625 1.234375 -0.640625 1.015625 -0.953125 C 0.796875 -1.273438 0.671875 -1.632812 0.640625 -2.03125 L 1.1875 -2.03125 C 1.25 -1.601562 1.445312 -1.21875 1.78125 -0.875 C 2.125 -0.539062 2.644531 -0.375 3.34375 -0.375 C 3.75 -0.375 4.101562 -0.445312 4.40625 -0.59375 C 4.707031 -0.75 4.9375 -0.953125 5.09375 -1.203125 C 5.257812 -1.460938 5.34375 -1.75 5.34375 -2.0625 C 5.34375 -2.457031 5.25 -2.773438 5.0625 -3.015625 C 4.875 -3.253906 4.632812 -3.429688 4.34375 -3.546875 C 4.0625 -3.660156 3.675781 -3.785156 3.1875 -3.921875 C 2.65625 -4.054688 2.226562 -4.191406 1.90625 -4.328125 C 1.582031 -4.472656 1.304688 -4.691406 1.078125 -4.984375 C 0.859375 -5.285156 0.75 -5.691406 0.75 -6.203125 C 0.75 -6.585938 0.851562 -6.941406 1.0625 -7.265625 C 1.269531 -7.585938 1.5625 -7.84375 1.9375 -8.03125 C 2.320312 -8.21875 2.769531 -8.3125 3.28125 -8.3125 C 4 -8.3125 4.582031 -8.128906 5.03125 -7.765625 C 5.476562 -7.410156 5.742188 -6.972656 5.828125 -6.453125 L 5.265625 -6.453125 C 5.222656 -6.660156 5.117188 -6.875 4.953125 -7.09375 C 4.796875 -7.3125 4.570312 -7.492188 4.28125 -7.640625 C 3.988281 -7.785156 3.640625 -7.859375 3.234375 -7.859375 C 2.679688 -7.859375 2.21875 -7.707031 1.84375 -7.40625 C 1.46875 -7.101562 1.28125 -6.703125 1.28125 -6.203125 C 1.28125 -5.804688 1.375 -5.488281 1.5625 -5.25 C 1.757812 -5.007812 2 -4.828125 2.28125 -4.703125 C 2.570312 -4.585938 2.960938 -4.46875 3.453125 -4.34375 C 3.992188 -4.195312 4.421875 -4.050781 4.734375 -3.90625 C 5.046875 -3.769531 5.3125 -3.554688 5.53125 -3.265625 C 5.757812 -2.972656 5.875 -2.578125 5.875 -2.078125 C 5.875 -1.710938 5.773438 -1.363281 5.578125 -1.03125 C 5.390625 -0.707031 5.101562 -0.441406 4.71875 -0.234375 C 4.34375 -0.0234375 3.882812 0.078125 3.34375 0.078125 Z M 3.34375 0.078125 "></path></g></g></g></svg>